<svg xmlns="http://www.w3.org/2000/svg" width="24" height="24" viewBox="0 0 24 24">
  <g id="Grupo_7283" data-name="Grupo 7283" transform="translate(16572 14289)">
    <circle id="Ellipse" cx="12" cy="12" r="12" transform="translate(-16572 -14289)" fill="#004f71"/>
    <path id="Step_Number" data-name="Step Number" d="M.913,13V11.778l3.8-3.848A3.877,3.877,0,0,0,5.144,7.4a1.852,1.852,0,0,0,.234-.488,1.7,1.7,0,0,0,.071-.487,1.04,1.04,0,0,0-.422-.845,1.663,1.663,0,0,0-1.073-.338A2.659,2.659,0,0,0,2.8,5.493a4.668,4.668,0,0,0-1.17.865L.666,5.187a5.6,5.6,0,0,1,1.6-1.072,4.367,4.367,0,0,1,1.742-.358,3.83,3.83,0,0,1,1.625.325,2.614,2.614,0,0,1,1.092.9,2.319,2.319,0,0,1,.39,1.339,2.74,2.74,0,0,1-.124.832,2.982,2.982,0,0,1-.4.786,6.235,6.235,0,0,1-.728.852L3.109,11.557l4.147-.013V13Z" transform="translate(-16563.766 -14285.449)" fill="#fff"/>
  </g>
</svg>
