<svg xmlns="http://www.w3.org/2000/svg" width="24" height="24" viewBox="0 0 24 24">
  <g id="Grupo_7284" data-name="Grupo 7284" transform="translate(16544 14289)">
    <circle id="Ellipse" cx="12" cy="12" r="12" transform="translate(-16544 -14289)" fill="#004f71"/>
    <path id="Step_Number" data-name="Step Number" d="M-.117.143A5.107,5.107,0,0,1-2.074-.228,4.108,4.108,0,0,1-3.588-1.274L-2.444-2.34a3.078,3.078,0,0,0,1.033.774,3.3,3.3,0,0,0,1.267.214,2.581,2.581,0,0,0,.956-.163,1.448,1.448,0,0,0,.637-.461,1.107,1.107,0,0,0,.228-.689,1.06,1.06,0,0,0-.182-.624A1.245,1.245,0,0,0,1-3.7,1.7,1.7,0,0,0,.26-3.848H-.884v-1.4H.1a1.378,1.378,0,0,0,.962-.318,1.125,1.125,0,0,0,.351-.878A1.106,1.106,0,0,0,1.209-7.1a1.423,1.423,0,0,0-.565-.461,1.879,1.879,0,0,0-.813-.169A2.666,2.666,0,0,0-1.332-7.5a3.419,3.419,0,0,0-1.021.832L-3.51-7.735A4.438,4.438,0,0,1-1.983-8.846,4.567,4.567,0,0,1-.1-9.243a4.008,4.008,0,0,1,1.677.332,2.781,2.781,0,0,1,1.144.917,2.253,2.253,0,0,1,.416,1.339,1.94,1.94,0,0,1-.481,1.294A2.505,2.505,0,0,1,1.4-4.576a2.731,2.731,0,0,1,1.449.728,1.8,1.8,0,0,1,.54,1.313,2.249,2.249,0,0,1-.455,1.378A3.017,3.017,0,0,1,1.7-.2,4.483,4.483,0,0,1-.117.143Z" transform="translate(-16531.902 -14272.449)" fill="#fff"/>
  </g>
</svg>
