<svg xmlns="http://www.w3.org/2000/svg" width="24" height="24" viewBox="0 0 24 24">
  <g id="Grupo_7286" data-name="Grupo 7286" transform="translate(16488 14289)">
    <circle id="Ellipse" cx="12" cy="12" r="12" transform="translate(-16488 -14289)" fill="#004f71"/>
    <path id="Step_Number" data-name="Step Number" d="M-.215.143A4.756,4.756,0,0,1-3.477-1.079l1.014-1.183a4.272,4.272,0,0,0,1.131.715,3.159,3.159,0,0,0,1.2.221,2.041,2.041,0,0,0,.923-.2A1.541,1.541,0,0,0,1.4-2.067a1.472,1.472,0,0,0,.227-.819,1.361,1.361,0,0,0-.513-1.092A2.009,2.009,0,0,0-.215-4.407a2.879,2.879,0,0,0-.806.117,4.179,4.179,0,0,0-.832.351L-3.062-4.3l.208-4.8H2.879v1.456H-1.359l-.1,2.3a3.532,3.532,0,0,1,.916-.312,4.9,4.9,0,0,1,.865-.078,3.521,3.521,0,0,1,1.606.345,2.549,2.549,0,0,1,1.06.969,2.76,2.76,0,0,1,.377,1.456,2.952,2.952,0,0,1-.449,1.625A3,3,0,0,1,1.657-.247,4.25,4.25,0,0,1-.215.143Z" transform="translate(-16475.943 -14272.594)" fill="#fff"/>
  </g>
</svg>
